PathFileType	4	(X/Y/Z)	D:\TRACE\v60_Jaco2_6-2-23\BothDRS_Motion1_6-platform.trc
DataRate	CameraRate	NumFrames	NumMarkers	Units	OrigDataRate	OrigDataStartFrame	OrigNumFrames
100.00	100.00	      44	5	mm	100.00	1	      7500
Frame#	Time	Left_Front			Right_Front			Left_Aft			Right_Aft			Post			
		X1	Y1	Z1	X2	Y2	Z2	X3	Y3	Z3	X4	Y4	Z4	X5	Y5	Z5	

1	0.000	-800.60962	8.72468	-638.95099	769.38452	9.90059	-644.23975	-708.73248	7.78196	496.30228	733.23865	7.07927	505.92984	-14.26476	1307.78333	-962.27917	
2	0.010	-800.58893	8.78893	-638.97766	769.32190	9.95838	-644.19910	-708.75763	7.79732	496.29486	733.21552	7.08960	505.93008	-14.28146	1307.79895	-962.30347	
3	0.020	-800.59674	8.74034	-639.01447	769.36444	9.90466	-644.25214	-708.75970	7.83316	496.33060	733.22864	7.09592	505.93182	-14.24607	1307.80493	-962.29510	
4	0.030	-800.63733	8.81960	-638.92047	769.31458	9.95407	-644.21124	-708.79431	7.85308	496.28445	733.17426	7.07024	505.93628	-14.27925	1307.81421	-962.29333	
5	0.040	-800.59418	8.73596	-638.98145	769.37549	9.91421	-644.24890	-708.77649	7.80191	496.32632	733.20898	7.10239	505.92917	-14.26197	1307.81628	-962.28162	
6	0.050	-800.59314	8.72861	-639.01270	769.32068	9.94878	-644.22906	-708.78430	7.80196	496.31223	733.20007	7.10103	505.93234	-14.27956	1307.78406	-962.28845	
7	0.060	-800.58453	8.70971	-638.98212	769.32208	9.93852	-644.23633	-708.78418	7.83461	496.25439	733.23938	7.09783	505.92065	-14.24929	1307.78040	-962.25024	
8	0.070	-800.61328	8.72549	-638.94739	769.41077	9.90938	-644.21429	-708.74426	7.81801	496.31012	733.23883	7.10126	505.94287	-14.27541	1307.75916	-962.25958	
9	0.080	-800.64386	8.70951	-638.94104	769.40430	9.88842	-644.23883	-708.76965	7.75812	496.31967	733.20557	7.08427	505.93802	-14.28136	1307.76440	-962.28625	
10	0.090	-800.68280	8.70540	-638.91046	769.30884	9.92789	-644.21088	-708.76630	7.75983	496.32596	733.12378	7.06437	505.95004	-14.29237	1307.74377	-962.29291	
11	0.100	-800.66357	8.73538	-638.92944	769.39136	9.89569	-644.23181	-708.73657	7.80258	496.33551	733.18066	7.04480	505.94617	-14.24307	1307.76440	-962.27692	
12	0.110	-800.64252	8.75137	-638.92926	769.40240	9.89417	-644.22174	-708.73969	7.81900	496.31369	733.12500	7.06778	505.95422	-14.29714	1307.79016	-962.28290	
13	0.120	-800.64124	8.73498	-639.00427	769.42151	9.89734	-644.22858	-708.76941	7.78356	496.28754	733.16449	7.07714	505.93958	-14.29904	1307.75696	-962.31934	
14	0.130	-800.63580	8.73017	-638.93634	769.37091	9.88900	-644.23083	-708.75885	7.76658	496.32031	733.17072	7.04527	505.95062	-14.20860	1307.76465	-962.29706	
15	0.140	-800.68188	8.70702	-638.91711	769.36542	9.87278	-644.23840	-708.75208	7.78374	496.32880	733.11774	7.03834	505.94547	-14.26699	1307.75452	-962.29248	
16	0.150	-800.66010	8.74491	-638.90472	769.35315	9.90328	-644.24670	-708.76984	7.78278	496.32224	733.17175	7.07084	505.92957	-14.25163	1307.75354	-962.24768	
17	0.160	-800.64886	8.74808	-638.94470	769.38239	9.89309	-644.21100	-708.78729	7.79181	496.29190	733.16687	7.06068	505.94016	-14.25667	1307.75220	-962.24231	
18	0.170	-800.62335	8.76072	-638.98914	769.39886	9.89938	-644.24548	-708.82684	7.87807	496.27689	733.22107	7.08689	505.91507	-14.24183	1307.78113	-962.27814	
19	0.180	-800.59601	8.71688	-638.98218	769.39923	9.90543	-644.22534	-708.80566	7.87681	496.31155	733.19781	7.09557	505.95367	-14.25934	1307.75989	-962.31519	
20	0.190	-800.65643	8.73518	-638.94592	769.32184	9.94445	-644.23328	-708.78870	7.86769	496.30032	733.19177	7.06256	505.95053	-14.27320	1307.77002	-962.30591	
21	0.200	-800.61786	8.73014	-638.97583	769.28729	9.94619	-644.21967	-708.79950	7.82887	496.30582	733.22156	7.08857	505.92657	-14.25119	1307.76807	-962.28394	
22	0.210	-800.63007	8.69394	-638.98511	769.38556	9.89704	-644.21185	-708.81274	7.85178	496.29749	733.21600	7.07931	505.93170	-14.31114	1307.78223	-962.27563	
23	0.220	-800.62115	8.76235	-638.97791	769.41125	9.90217	-644.22809	-708.75739	7.82607	496.29407	733.25940	7.07922	505.93359	-14.28395	1307.77783	-962.30426	
24	0.230	-800.58057	8.71314	-638.98029	769.32623	9.94934	-644.21765	-708.75281	7.80412	496.28018	733.22070	7.09625	505.91995	-14.27652	1307.80481	-962.29254	
25	0.240	-800.64581	8.73418	-638.98529	769.37500	9.89082	-644.24023	-708.76447	7.78214	496.28458	733.20752	7.05611	505.93988	-14.31431	1307.81055	-962.31531	
26	0.250	-800.65234	8.72318	-638.87781	769.31586	9.92648	-644.25684	-708.78180	7.82252	496.33237	733.18170	7.04428	505.94510	-14.27221	1307.77539	-962.26465	
27	0.260	-800.62885	8.70952	-638.94940	769.34106	9.92910	-644.23621	-708.79480	7.82822	496.32184	733.19568	7.06876	505.92734	-14.21786	1307.78784	-962.29639	
28	0.270	-800.58856	8.69745	-639.00952	769.42908	9.89271	-644.21875	-708.77081	7.82117	496.31134	733.23511	7.05398	505.94476	-14.30620	1307.76929	-962.27118	
29	0.280	-800.61786	8.73556	-638.93005	769.43115	9.90446	-644.22058	-708.77167	7.80847	496.30756	733.30817	7.04536	505.91974	-14.28024	1307.74451	-962.28754	
30	0.290	-800.64709	8.68686	-638.94141	769.39355	9.87959	-644.21582	-708.76837	7.81370	496.31979	733.14655	7.04360	505.95734	-14.33807	1307.77942	-962.28113	
31	0.300	-800.65234	8.68960	-638.93396	769.41089	9.88881	-644.21252	-708.76221	7.80927	496.30737	733.19788	7.04612	505.94421	-14.24556	1307.76196	-962.31000	
32	0.310	-800.64404	8.68291	-638.92511	769.42120	9.88943	-644.19781	-708.80927	7.78399	496.32721	733.17261	7.04777	505.95230	-14.29161	1307.76624	-962.30286	
33	0.320	-800.62506	8.74457	-638.90881	769.36066	9.95106	-644.20306	-708.81433	7.83763	496.27109	733.15961	7.07379	505.93869	-14.29120	1307.79761	-962.30377	
34	0.330	-800.61249	8.74353	-638.94098	769.42554	9.91638	-644.22150	-708.79724	7.80405	496.29709	733.24078	7.07658	505.91614	-14.23726	1307.77661	-962.30194	
35	0.340	-800.63745	8.74099	-638.91095	769.41583	9.90274	-644.23547	-708.77252	7.83291	496.32428	733.18567	7.06189	505.93445	-14.30300	1307.77893	-962.27979	
36	0.350	-800.58862	8.65007	-638.97308	769.33740	9.92389	-644.20935	-708.75592	7.79078	496.31879	733.22858	7.05778	505.92215	-14.31765	1307.84082	-962.26556	
37	0.360	-800.65955	8.76059	-638.92810	769.38959	9.90903	-644.22021	-708.78351	7.78630	496.31079	733.21680	7.07096	505.94281	-14.28042	1307.80676	-962.31567	
38	0.370	-800.61346	8.76004	-638.95654	769.27838	9.93435	-644.23505	-708.76483	7.80703	496.33624	733.23633	7.10765	505.91125	-14.39408	1307.83008	-962.30157	
39	0.380	-800.60504	8.73098	-638.94159	769.39026	9.91697	-644.23022	-708.80768	7.83044	496.30841	733.19794	7.09025	505.92041	-14.38603	1307.79016	-962.31610	
40	0.390	-800.63226	8.73649	-638.99231	769.41205	9.90384	-644.18494	-708.78485	7.83416	496.29678	733.19464	7.09636	505.93869	-14.29134	1307.83167	-962.29456	
41	0.400	-800.63007	8.72192	-638.93787	769.32050	9.90487	-644.24225	-708.80591	7.88029	496.32736	733.18585	7.07778	505.94589	-14.35571	1307.78809	-962.30603	
42	0.410	-800.61414	8.72485	-638.94513	769.43323	9.92012	-644.24548	-708.80219	7.84221	496.27319	733.23987	7.09141	505.92557	-14.25235	1307.78381	-962.28870	
43	0.420	-800.61267	8.72360	-638.97101	769.38635	9.89871	-644.22491	-708.80621	7.82606	496.31818	733.21759	7.08110	505.93143	-14.28927	1307.79248	-962.26709	
44	0.430	-800.60004	8.66957	-638.98920	769.36279	9.96566	-644.18195	-708.77411	7.79400	496.31247	733.19287	7.08266	505.93027	-14.26692	1307.75391	-962.28961	
